<svg viewBox="0 0 1024 1024" version="1.1" xmlns="http://www.w3.org/2000/svg" desc="Created with imagetracer.js version 1.2.6" ><path fill="rgb(54,71,28)" stroke="rgb(54,71,28)" stroke-width="0" opacity="0.9607843137254902" d="M 571 241 L 615 254 L 632 267 Q 641 276 645 290 L 646 310 L 623 310 L 608 306 Q 594 300 585 290 Q 577 280 573 267 L 571 258 L 571 241 Z M 597 270 L 602 276 L 629 295 L 631 297 L 626 290 Q 614 277 597 270 Z " /><path fill="rgb(54,71,28)" stroke="rgb(54,71,28)" stroke-width="0" opacity="0.9607843137254902" d="M 697 248 Q 702 246 701 250 L 703 254 L 704 267 L 705 268 L 702 285 Q 697 295 690 303 Q 678 313 659 315 L 656 303 L 656 290 Q 659 273 670 264 L 682 255 L 697 248 Z M 686 272 Q 675 281 670 296 L 671 299 L 676 293 L 686 274 L 686 272 Z " /><path fill="rgb(54,71,28)" stroke="rgb(54,71,28)" stroke-width="0" opacity="0.9607843137254902" d="M 376 252 L 388 252 L 401 256 Q 412 262 419 272 L 426 285 L 428 293 L 428 306 Q 424 326 410 337 Q 402 344 390 346 L 373 346 Q 354 342 345 330 Q 333 318 334 295 L 336 285 L 340 276 L 351 263 L 364 255 L 376 252 Z " /><path fill="rgb(54,71,28)" stroke="rgb(54,71,28)" stroke-width="0" opacity="0.9607843137254902" d="M 288 288 Q 299 286 302 293 Q 305 296 304 305 L 300 311 Q 296 314 288 313 L 281 309 L 278 301 L 283 291 L 288 288 Z " /><path fill="rgb(54,71,28)" stroke="rgb(54,71,28)" stroke-width="0" opacity="0.9607843137254902" d="M 718 307 L 739 308 L 763 316 Q 758 331 747 341 Q 738 349 726 352 L 721 353 L 704 353 Q 686 349 675 340 Q 681 328 691 319 L 706 310 L 718 307 Z M 723 327 L 722 328 L 708 329 L 694 333 L 694 334 L 714 333 L 734 328 L 723 327 Z " /><path fill="rgb(54,71,28)" stroke="rgb(54,71,28)" stroke-width="0" opacity="0.9607843137254902" d="M 546 312 L 573 312 L 574 313 L 582 313 L 615 320 Q 635 327 652 337 L 682 360 Q 681 363 684 362 L 685 365 Q 688 364 687 367 Q 706 385 717 412 L 722 426 L 726 443 L 727 460 L 728 461 L 728 474 L 727 475 L 727 486 L 724 503 L 715 530 Q 701 558 679 578 Q 652 602 614 613 L 587 618 L 555 619 L 554 618 L 545 618 L 528 615 L 497 605 Q 465 591 443 568 Q 430 554 420 537 L 407 505 L 404 488 L 400 482 L 392 480 L 339 480 L 335 478 L 333 467 L 337 459 L 339 458 L 431 458 L 439 464 L 447 464 L 451 461 L 453 458 L 454 449 L 449 440 Q 445 437 437 438 L 430 443 L 338 443 L 334 440 L 333 430 L 335 424 L 338 421 L 444 421 Q 450 420 453 416 Q 464 393 483 378 Q 500 363 526 355 L 549 351 L 566 351 L 592 356 L 619 368 L 623 373 L 627 379 Q 630 383 639 382 L 646 377 Q 649 373 648 365 L 644 358 Q 641 354 634 355 L 630 356 L 613 347 L 586 339 L 571 338 L 570 337 L 546 337 L 524 341 Q 506 346 493 354 Q 470 367 454 387 L 439 406 L 437 406 L 432 405 Q 430 408 425 406 L 423 406 Q 416 408 415 405 L 414 406 L 401 406 L 399 405 L 398 406 L 386 406 L 384 406 L 369 406 L 367 405 L 366 406 L 348 406 L 345 405 L 341 406 L 335 404 Q 332 401 333 395 L 336 384 L 344 375 L 350 372 L 402 372 L 403 373 L 414 373 L 429 376 L 446 356 L 448 355 Q 447 352 450 353 Q 468 336 493 325 L 506 320 L 525 315 L 530 315 L 537 313 L 545 313 L 546 312 Z M 544 383 Q 521 387 507 400 Q 497 408 490 420 L 482 439 L 479 455 Q 478 493 495 514 Q 502 523 514 530 L 532 538 L 548 541 Q 586 542 606 525 Q 620 514 628 497 L 633 482 L 635 465 L 635 463 L 633 445 L 629 432 L 616 410 Q 605 396 588 388 L 569 383 L 544 383 Z M 673 421 L 669 423 Q 662 427 660 435 L 660 443 L 663 449 Q 666 453 671 454 L 673 465 L 671 486 L 665 507 Q 658 522 648 535 Q 628 559 593 569 L 588 569 L 579 564 Q 569 563 565 567 Q 558 571 557 580 L 560 590 Q 563 594 570 596 Q 581 598 586 593 L 591 586 L 595 583 L 604 581 L 622 573 L 645 558 Q 660 545 671 528 Q 679 515 683 500 L 687 477 L 687 462 L 686 461 L 686 455 Q 693 450 695 442 L 695 435 L 693 430 L 686 422 Q 681 420 673 421 Z " /><path fill="rgb(54,71,28)" stroke="rgb(54,71,28)" stroke-width="0" opacity="0.9607843137254902" d="M 304 348 Q 311 348 315 353 Q 318 356 317 365 L 312 371 L 305 373 Q 297 372 294 367 L 293 358 L 299 350 L 304 348 Z " /><path fill="rgb(54,71,28)" stroke="rgb(54,71,28)" stroke-width="0" opacity="0.9607843137254902" d="M 759 389 Q 767 390 770 396 L 771 404 L 766 411 Q 762 413 756 412 L 749 407 L 748 398 L 753 391 L 759 389 Z " /><path fill="rgb(54,71,28)" stroke="rgb(54,71,28)" stroke-width="0" opacity="0.9607843137254902" d="M 339 495 L 387 495 L 390 498 L 400 527 Q 406 542 416 554 L 416 581 L 415 582 L 415 599 L 414 604 L 409 612 L 406 614 L 397 616 L 358 616 L 348 613 L 341 608 L 338 600 L 337 586 L 336 585 L 336 575 L 335 574 L 335 562 L 334 561 L 333 502 L 337 496 L 339 495 Z " /><path fill="rgb(54,71,28)" stroke="rgb(54,71,28)" stroke-width="0" opacity="0.9607843137254902" d="M 635 632 Q 649 630 653 639 Q 657 643 655 652 L 649 659 Q 644 663 635 661 L 626 655 Q 622 651 624 643 L 631 634 L 635 632 Z " /><path fill="rgb(54,71,28)" stroke="rgb(54,71,28)" stroke-width="0" opacity="0.9607843137254902" d="M 245 636 L 298 636 Q 317 640 327 653 L 333 665 L 334 670 L 334 686 Q 331 700 322 708 L 311 714 L 311 717 L 336 753 L 334 755 L 311 755 L 305 750 L 286 720 L 266 720 L 266 752 L 264 755 L 243 755 L 241 754 L 240 751 L 240 653 L 241 652 L 241 640 L 242 637 L 245 636 Z M 265 657 L 265 669 L 266 670 L 266 683 L 265 684 L 266 686 L 266 688 Q 267 692 265 694 Q 264 697 267 698 L 288 698 L 297 696 L 302 693 L 306 688 L 308 681 L 308 675 L 305 666 Q 302 660 295 658 L 290 657 L 265 657 Z " /><path fill="rgb(54,71,28)" stroke="rgb(54,71,28)" stroke-width="0" opacity="0.9607843137254902" d="M 567 636 L 586 636 L 588 637 L 589 640 L 589 666 L 589 667 L 613 667 L 615 670 L 615 688 L 614 688 L 613 689 L 589 689 L 589 729 L 593 734 Q 597 737 605 736 L 606 735 L 617 734 Q 620 738 619 748 L 616 753 L 606 757 L 593 758 L 582 756 L 576 753 L 568 746 L 563 733 L 563 689 L 547 689 L 546 688 L 545 687 L 545 670 L 549 667 L 563 667 L 563 639 L 565 637 L 567 636 Z " /><path fill="rgb(54,71,28)" stroke="rgb(54,71,28)" stroke-width="0" opacity="0.9607843137254902" d="M 389 664 L 401 665 L 408 667 Q 422 673 431 685 L 438 700 L 439 718 L 437 728 L 432 738 L 425 746 Q 412 759 386 758 L 370 754 Q 360 750 353 743 L 344 728 L 342 720 L 342 704 Q 346 685 359 675 L 371 668 L 389 664 Z M 387 687 L 377 691 Q 370 696 368 707 L 369 722 L 374 730 L 384 735 Q 388 734 390 736 L 403 733 Q 411 728 413 716 L 413 708 L 409 697 Q 404 686 387 687 Z " /><path fill="rgb(54,71,28)" stroke="rgb(54,71,28)" stroke-width="0" opacity="0.9607843137254902" d="M 714 664 Q 741 665 754 682 Q 760 688 763 699 Q 766 707 764 721 Q 760 738 749 747 Q 736 759 710 758 Q 708 756 703 757 L 686 750 L 674 740 L 666 724 L 665 706 Q 669 686 682 676 L 695 668 L 714 664 Z M 713 687 L 704 690 Q 695 695 693 706 Q 691 722 698 729 Q 703 734 713 736 Q 723 736 729 732 Q 735 728 737 720 Q 740 702 732 695 Q 727 686 713 687 Z " /><path fill="rgb(54,71,28)" stroke="rgb(54,71,28)" stroke-width="0" opacity="0.9607843137254902" d="M 486 665 L 505 665 L 513 667 Q 527 672 535 684 L 542 697 L 544 708 L 544 716 L 542 727 L 537 737 L 527 748 Q 514 759 491 758 L 475 754 L 459 744 Q 446 731 446 706 L 449 694 L 460 678 Q 469 668 486 665 Z M 491 687 L 482 691 Q 475 695 473 704 L 473 720 L 478 729 L 486 734 L 495 736 Q 504 736 509 732 Q 516 727 518 718 L 518 706 L 515 698 Q 511 691 504 688 L 491 687 Z " /><path fill="rgb(54,71,28)" stroke="rgb(54,71,28)" stroke-width="0" opacity="0.9607843137254902" d="M 633 667 L 647 667 L 648 668 L 650 668 Q 655 666 653 672 L 654 673 L 654 752 L 652 755 L 629 755 L 627 754 L 626 752 L 626 672 L 629 668 L 633 667 Z " /><path fill="rgb(0,0,0)" stroke="rgb(0,0,0)" stroke-width="0" opacity="0" d="M 0 0 L 1024 0 L 1024 1024 L 0 1024 L 0 0 Z M 571 241 L 571 258 L 573 267 Q 577 280 585 290 Q 594 300 608 306 L 623 310 L 646 310 L 645 290 Q 641 276 632 267 L 615 254 L 571 241 Z M 697 248 L 682 255 L 670 264 Q 659 273 656 290 L 656 303 L 659 315 Q 678 313 690 303 Q 697 295 702 285 L 705 268 L 704 267 L 703 254 L 701 250 Q 702 246 697 248 Z M 376 252 L 364 255 L 351 263 L 340 276 L 336 285 L 334 295 Q 333 318 345 330 Q 354 342 373 346 L 390 346 Q 402 344 410 337 Q 424 326 428 306 L 428 293 L 426 285 L 419 272 Q 412 262 401 256 L 388 252 L 376 252 Z M 288 288 L 283 291 L 278 301 L 281 309 L 288 313 Q 296 314 300 311 L 304 305 Q 305 296 302 293 Q 299 286 288 288 Z M 718 307 L 706 310 L 691 319 Q 681 328 675 340 Q 686 349 704 353 L 721 353 L 726 352 Q 738 349 747 341 Q 758 331 763 316 L 739 308 L 718 307 Z M 546 312 L 545 313 L 537 313 L 530 315 L 525 315 L 506 320 L 493 325 Q 468 336 450 353 Q 447 352 448 355 L 446 356 L 429 376 L 414 373 L 403 373 L 402 372 L 350 372 L 344 375 L 336 384 L 333 395 Q 332 401 335 404 L 341 406 L 345 405 L 348 406 L 366 406 L 367 405 L 369 406 L 384 406 L 386 406 L 398 406 L 399 405 L 401 406 L 414 406 L 415 405 Q 416 408 423 406 L 425 406 Q 430 408 432 405 L 437 406 L 439 406 L 454 387 Q 470 367 493 354 Q 506 346 524 341 L 546 337 L 570 337 L 571 338 L 586 339 L 613 347 L 630 356 L 634 355 Q 641 354 644 358 L 648 365 Q 649 373 646 377 L 639 382 Q 630 383 627 379 L 623 373 L 619 368 L 592 356 L 566 351 L 549 351 L 526 355 Q 500 363 483 378 Q 464 393 453 416 Q 450 420 444 421 L 338 421 L 335 424 L 333 430 L 334 440 L 338 443 L 430 443 L 437 438 Q 445 437 449 440 L 454 449 L 453 458 L 451 461 L 447 464 L 439 464 L 431 458 L 339 458 L 337 459 L 333 467 L 335 478 L 339 480 L 392 480 L 400 482 L 404 488 L 407 505 L 420 537 Q 430 554 443 568 Q 465 591 497 605 L 528 615 L 545 618 L 554 618 L 555 619 L 587 618 L 614 613 Q 652 602 679 578 Q 701 558 715 530 L 724 503 L 727 486 L 727 475 L 728 474 L 728 461 L 727 460 L 726 443 L 722 426 L 717 412 Q 706 385 687 367 Q 688 364 685 365 L 684 362 Q 681 363 682 360 L 652 337 Q 635 327 615 320 L 582 313 L 574 313 L 573 312 L 546 312 Z M 304 348 L 299 350 L 293 358 L 294 367 Q 297 372 305 373 L 312 371 L 317 365 Q 318 356 315 353 Q 311 348 304 348 Z M 759 389 L 753 391 L 748 398 L 749 407 L 756 412 Q 762 413 766 411 L 771 404 L 770 396 Q 767 390 759 389 Z M 339 495 L 337 496 L 333 502 L 334 561 L 335 562 L 335 574 L 336 575 L 336 585 L 337 586 L 338 600 L 341 608 L 348 613 L 358 616 L 397 616 L 406 614 L 409 612 L 414 604 L 415 599 L 415 582 L 416 581 L 416 554 Q 406 542 400 527 L 390 498 L 387 495 L 339 495 Z M 635 632 L 631 634 L 624 643 Q 622 651 626 655 L 635 661 Q 644 663 649 659 L 655 652 Q 657 643 653 639 Q 649 630 635 632 Z M 245 636 L 242 637 L 241 640 L 241 652 L 240 653 L 240 751 L 241 754 L 243 755 L 264 755 L 266 752 L 266 720 L 286 720 L 305 750 L 311 755 L 334 755 L 336 753 L 311 717 L 311 714 L 322 708 Q 331 700 334 686 L 334 670 L 333 665 L 327 653 Q 317 640 298 636 L 245 636 Z M 567 636 L 565 637 L 563 639 L 563 667 L 549 667 L 545 670 L 545 687 L 546 688 L 547 689 L 563 689 L 563 733 L 568 746 L 576 753 L 582 756 L 593 758 L 606 757 L 616 753 L 619 748 Q 620 738 617 734 L 606 735 L 605 736 Q 597 737 593 734 L 589 729 L 589 689 L 613 689 L 614 688 L 615 688 L 615 670 L 613 667 L 589 667 L 589 666 L 589 640 L 588 637 L 586 636 L 567 636 Z M 389 664 L 371 668 L 359 675 Q 346 685 342 704 L 342 720 L 344 728 L 353 743 Q 360 750 370 754 L 386 758 Q 412 759 425 746 L 432 738 L 437 728 L 439 718 L 438 700 L 431 685 Q 422 673 408 667 L 401 665 L 389 664 Z M 714 664 L 695 668 L 682 676 Q 669 686 665 706 L 666 724 L 674 740 L 686 750 L 703 757 Q 708 756 710 758 Q 736 759 749 747 Q 760 738 764 721 Q 766 707 763 699 Q 760 688 754 682 Q 741 665 714 664 Z M 486 665 Q 469 668 460 678 L 449 694 L 446 706 Q 446 731 459 744 L 475 754 L 491 758 Q 514 759 527 748 L 537 737 L 542 727 L 544 716 L 544 708 L 542 697 L 535 684 Q 527 672 513 667 L 505 665 L 486 665 Z M 633 667 L 629 668 L 626 672 L 626 752 L 627 754 L 629 755 L 652 755 L 654 752 L 654 673 L 653 672 Q 655 666 650 668 L 648 668 L 647 667 L 633 667 Z " /><path fill="rgb(0,0,0)" stroke="rgb(0,0,0)" stroke-width="0" opacity="0" d="M 596 269 Q 614 276 626 290 L 631 297 L 629 295 L 602 276 L 596 269 Z " /><path fill="rgb(0,0,0)" stroke="rgb(0,0,0)" stroke-width="0" opacity="0" d="M 686 272 L 686 274 L 676 293 L 670 300 L 670 299 L 672 290 Q 677 279 686 272 Z " /><path fill="rgb(0,0,0)" stroke="rgb(0,0,0)" stroke-width="0" opacity="0" d="M 723 327 L 734 328 L 714 333 L 694 334 L 694 333 L 708 329 L 722 328 L 723 327 Z " /><path fill="rgb(0,0,0)" stroke="rgb(0,0,0)" stroke-width="0" opacity="0" d="M 544 383 L 569 383 L 588 388 Q 605 396 616 410 L 629 432 L 633 445 L 635 463 L 635 465 L 633 482 L 628 497 Q 620 514 606 525 Q 586 542 548 541 L 532 538 L 514 530 Q 502 523 495 514 Q 478 493 479 455 L 482 439 L 490 420 Q 497 408 507 400 Q 521 387 544 383 Z " /><path fill="rgb(0,0,0)" stroke="rgb(0,0,0)" stroke-width="0" opacity="0" d="M 673 421 Q 681 420 686 422 L 693 430 L 695 435 L 695 442 Q 693 450 686 455 L 686 461 L 687 462 L 687 477 L 683 500 Q 679 515 671 528 Q 660 545 645 558 L 622 573 L 604 581 L 595 583 L 591 586 L 586 593 Q 581 598 570 596 Q 563 594 560 590 L 557 580 Q 558 571 565 567 Q 569 563 579 564 L 588 569 L 593 569 Q 628 559 648 535 Q 658 522 665 507 L 671 486 L 673 465 L 671 454 Q 666 453 663 449 L 660 443 L 660 435 Q 662 427 669 423 L 673 421 Z " /><path fill="rgb(0,0,0)" stroke="rgb(0,0,0)" stroke-width="0" opacity="0" d="M 265 657 L 290 657 L 295 658 Q 302 660 305 666 L 308 675 L 308 681 L 306 688 L 302 693 L 297 696 L 288 698 L 267 698 Q 264 697 265 694 Q 267 692 266 688 L 266 686 L 265 684 L 266 683 L 266 670 L 265 669 L 265 657 Z " /><path fill="rgb(0,0,0)" stroke="rgb(0,0,0)" stroke-width="0" opacity="0" d="M 387 687 Q 404 686 409 697 L 413 708 L 413 716 Q 411 728 403 733 L 390 736 Q 388 734 384 735 L 374 730 L 369 722 L 368 707 Q 370 696 377 691 L 387 687 Z " /><path fill="rgb(0,0,0)" stroke="rgb(0,0,0)" stroke-width="0" opacity="0" d="M 491 687 L 504 688 Q 511 691 515 698 L 518 706 L 518 718 Q 516 727 509 732 Q 504 736 495 736 L 486 734 L 478 729 L 473 720 L 473 704 Q 475 695 482 691 L 491 687 Z " /><path fill="rgb(0,0,0)" stroke="rgb(0,0,0)" stroke-width="0" opacity="0" d="M 713 687 Q 727 686 732 695 Q 740 702 737 720 Q 735 728 729 732 Q 723 736 713 736 Q 703 734 698 729 Q 691 722 693 706 Q 695 695 704 690 L 713 687 Z " /></svg>